<?xml version="1.0" standalone="no"?>
<!DOCTYPE svg PUBLIC "-//W3C//DTD SVG 20010904//EN"
 "http://www.w3.org/TR/2001/REC-SVG-20010904/DTD/svg10.dtd">
<svg version="1.0" xmlns="http://www.w3.org/2000/svg"
 width="600.000000pt" height="750.000000pt" viewBox="0 0 600.000000 750.000000"
 preserveAspectRatio="xMidYMid meet">

<g transform="translate(0.000000,750.000000) scale(0.100000,-0.100000)"
fill="#000000" stroke="none">
<path d="M2805 7329 c-696 -26 -1519 -226 -2164 -525 l-101 -47 -21 -66 c-66
-212 -163 -634 -218 -946 -92 -521 -132 -961 -132 -1460 0 -526 42 -908 146
-1330 169 -686 468 -1205 986 -1710 277 -271 536 -469 894 -683 250 -150 740
-382 806 -382 32 0 272 102 450 191 514 256 907 535 1285 913 251 252 401 440
563 711 296 492 469 1105 521 1845 13 188 13 701 0 905 -41 639 -168 1362
-340 1946 l-20 66 -92 43 c-630 293 -1475 503 -2113 525 -82 3 -177 7 -210 8
-33 2 -141 0 -240 -4z m341 -199 c105 -27 299 -124 405 -204 276 -208 497
-509 710 -969 412 -884 683 -1781 715 -2367 l7 -115 -137 -204 c-213 -319
-420 -587 -603 -782 -43 -45 -72 -80 -66 -78 24 8 248 168 361 258 233 185
468 415 579 568 21 29 45 53 54 53 8 0 46 -11 85 -23 54 -19 70 -28 72 -45 5
-31 -62 -296 -109 -437 -120 -355 -366 -752 -690 -1112 -129 -144 -105 -138
-282 -68 -145 58 -239 115 -318 194 -93 94 -114 142 -113 261 1 164 46 255
375 748 205 306 330 527 345 609 8 40 -21 148 -108 403 -245 720 -561 1292
-866 1570 -97 89 -230 174 -330 211 -113 41 -272 51 -385 24 -443 -107 -866
-680 -1224 -1655 -71 -194 -165 -494 -165 -525 -1 -32 58 -170 114 -270 28
-49 146 -234 263 -410 296 -444 350 -554 350 -715 0 -74 -4 -92 -28 -139 -74
-139 -239 -254 -485 -336 l-83 -27 -26 23 c-100 93 -328 375 -450 557 -230
344 -353 641 -448 1089 -4 19 4 24 73 47 42 14 82 26 88 26 7 0 47 -44 90 -97
148 -184 396 -416 649 -605 115 -86 250 -178 262 -178 4 0 -24 33 -63 72 -184
188 -464 555 -683 896 l-70 109 10 109 c55 654 304 1475 710 2348 273 588 562
932 935 1112 191 93 324 114 480 74z m1378 -456 c158 -44 381 -120 501 -172
l90 -39 22 -84 c33 -121 107 -486 142 -695 79 -473 118 -854 137 -1312 6 -173
-3 -608 -14 -598 -3 3 -20 79 -38 168 -40 195 -120 520 -175 712 -223 776
-468 1335 -898 2048 l-22 36 63 -14 c35 -8 121 -30 192 -50z m-2804 51 c0 -2
-31 -56 -70 -119 -230 -382 -463 -858 -610 -1246 -151 -400 -319 -986 -406
-1417 -16 -78 -32 -139 -37 -134 -12 12 -10 649 3 836 23 340 62 671 120 1020
37 222 111 587 148 729 l18 68 104 45 c222 95 730 247 730 218z m745 -2490
c65 -31 285 -176 306 -202 12 -14 -2 -15 -156 -9 -259 10 -312 16 -339 37 -13
10 -42 55 -65 99 -37 70 -40 81 -25 87 84 32 198 27 279 -12z m1338 16 l28
-11 -42 -80 c-23 -44 -52 -89 -65 -99 -27 -21 -80 -27 -339 -37 -203 -8 -202
-13 -13 113 175 117 221 135 323 129 44 -2 93 -9 108 -15z"/>
</g>
</svg>
