<?xml version="1.0" standalone="no"?>
<!DOCTYPE svg PUBLIC "-//W3C//DTD SVG 20010904//EN"
 "http://www.w3.org/TR/2001/REC-SVG-20010904/DTD/svg10.dtd">
<svg version="1.0" xmlns="http://www.w3.org/2000/svg"
 width="200.000000pt" height="200.000000pt" viewBox="0 0 200.000000 200.000000"
 preserveAspectRatio="xMidYMid meet">

<g transform="translate(0.000000,200.000000) scale(0.100000,-0.100000)"
fill="#000000" stroke="none">
<path d="M309 1498 c-111 -194 -222 -385 -245 -425 l-43 -72 246 -426 245
-425 491 2 491 3 29 50 c101 171 447 775 452 786 2 8 -105 203 -238 434 l-243
420 -491 3 -491 2 -203 -352z m1102 200 c6 -7 100 -168 209 -356 l198 -344
-112 -191 c-62 -106 -154 -265 -205 -355 l-93 -162 -407 2 -406 3 -76 130
c-42 72 -133 230 -203 352 l-128 223 183 317 c100 175 193 335 206 356 l23 37
400 0 c307 0 402 -3 411 -12z"/>
<path d="M600 1295 c-88 -181 -159 -332 -158 -337 2 -5 81 -54 177 -111 l174
-102 53 -178 c29 -97 56 -182 59 -187 3 -6 48 -10 100 -10 l94 0 26 88 c15 48
40 132 57 187 l31 101 178 104 c98 58 178 108 176 111 -13 36 -324 659 -328
659 -4 0 -33 -66 -66 -147 l-59 -148 -113 0 -113 0 -55 140 c-30 77 -59 144
-64 149 -5 5 -76 -129 -169 -319z m246 -306 c44 -44 81 -85 82 -90 3 -6 -28
-9 -78 -7 l-82 3 -1 88 c-1 48 -1 87 -1 87 1 0 37 -36 80 -81z m390 -86 c-6
-15 -160 -19 -154 -4 2 6 37 47 78 93 l75 82 3 -79 c2 -43 1 -84 -2 -92z"/>
</g>
</svg>
