<?xml version="1.0" standalone="no"?>
<!DOCTYPE svg PUBLIC "-//W3C//DTD SVG 20010904//EN"
 "http://www.w3.org/TR/2001/REC-SVG-20010904/DTD/svg10.dtd">
<svg version="1.0" xmlns="http://www.w3.org/2000/svg"
 width="1200.000000pt" height="784.000000pt" viewBox="0 0 1200.000000 784.000000"
 preserveAspectRatio="xMidYMid meet">

<g transform="translate(0.000000,784.000000) scale(0.100000,-0.100000)"
fill="#000000" stroke="none">
<path d="M5385 7799 c-785 -28 -1072 -42 -1465 -75 -778 -63 -1556 -175 -2440
-349 -806 -159 -1315 -276 -1413 -327 l-38 -19 20 -27 c51 -71 394 -475 741
-872 235 -270 352 -389 405 -414 43 -21 37 -21 255 28 447 101 1324 239 2010
317 139 16 396 17 412 1 20 -20 -249 -792 -389 -1117 -345 -797 -820 -1530
-1379 -2130 -265 -283 -596 -582 -822 -743 l-123 -87 6 -795 c5 -731 15 -1083
30 -1098 31 -31 772 459 1150 762 918 733 1652 1606 2219 2640 609 1108 1000
2355 1091 3472 8 103 18 335 22 516 l6 328 -39 -2 c-21 0 -138 -5 -259 -9z"/>
<path d="M6320 7628 c0 -245 16 -605 35 -786 114 -1097 490 -2270 1059 -3305
704 -1281 1676 -2337 2901 -3152 217 -145 462 -295 481 -295 6 0 14 26 18 63
12 108 25 823 25 1337 l0 495 -106 75 c-229 162 -575 475 -841 761 -618 662
-1142 1505 -1477 2374 -82 214 -297 847 -291 860 8 21 149 25 313 10 451 -43
1606 -220 2103 -322 96 -20 187 -38 201 -40 75 -13 208 119 729 727 365 426
494 588 480 605 -34 41 -428 138 -1180 290 -1482 300 -2484 419 -3910 465
-173 5 -366 12 -427 16 l-113 5 0 -183z"/>
<path d="M5280 1763 c0 -1690 0 -1717 19 -1698 11 11 335 379 720 819 l701
799 0 898 0 899 -720 0 -720 0 0 -1717z"/>
</g>
</svg>
