<?xml version="1.0" standalone="no"?>
<!DOCTYPE svg PUBLIC "-//W3C//DTD SVG 20010904//EN"
 "http://www.w3.org/TR/2001/REC-SVG-20010904/DTD/svg10.dtd">
<svg version="1.0" xmlns="http://www.w3.org/2000/svg"
 width="2500.000000pt" height="2999.000000pt" viewBox="0 0 2500.000000 2999.000000"
 preserveAspectRatio="xMidYMid meet">

<g transform="translate(0.000000,2999.000000) scale(0.100000,-0.100000)"
fill="#000000" stroke="none">
<path d="M96 29980 c-37 -12 -66 -38 -81 -75 -16 -42 -21 -6172 -5 -6238 15
-57 62 -114 114 -138 40 -18 127 -19 2419 -19 2347 0 2378 0 2416 20 50 25 96
81 109 132 14 56 -4 2608 -19 2661 -14 51 -71 112 -122 131 -23 9 -184 36
-357 61 -421 61 -833 124 -1245 191 -234 38 -353 54 -382 49 -122 -18 -207
-165 -159 -278 22 -53 336 -461 625 -812 130 -158 121 -120 121 -503 0 -325 0
-329 -23 -373 -13 -24 -42 -57 -65 -73 -69 -49 -38 -49 -1377 39 -126 8 -247
19 -267 25 -48 14 -93 52 -121 104 l-22 41 -6 1380 c-4 932 -3 1394 4 1424 14
60 77 125 137 141 56 16 62 15 536 -94 859 -197 2393 -506 2508 -506 94 1 186
79 206 175 7 34 10 181 8 416 -3 354 -4 365 -25 405 -12 23 -37 51 -55 62 -18
11 -226 85 -463 165 -2308 780 -3432 1164 -4153 1421 -117 42 -216 76 -220 75
-4 0 -20 -5 -36 -9z"/>
<path d="M24635 29929 c-391 -147 -921 -337 -1640 -586 -435 -150 -499 -172
-1595 -543 -981 -332 -1225 -417 -1274 -443 -25 -14 -48 -38 -63 -66 l-23 -44
0 -2294 c0 -1925 2 -2299 14 -2326 16 -39 61 -82 99 -96 38 -15 4676 -15 4728
-1 42 12 82 51 103 102 14 33 16 235 16 1865 0 1205 -4 1840 -10 1865 -13 47
-77 105 -126 114 -27 5 -78 -2 -178 -25 -503 -116 -1275 -284 -1800 -392 -169
-35 -205 -51 -243 -108 -26 -38 -31 -120 -10 -158 7 -12 75 -90 153 -175 230
-250 264 -288 455 -508 101 -116 194 -230 207 -252 22 -41 22 -44 22 -460 0
-449 -1 -459 -51 -505 -13 -12 -37 -26 -52 -32 -44 -17 -1572 -127 -1639 -118
-51 7 -97 42 -119 91 -18 39 -18 86 -13 1241 3 660 9 1254 13 1321 11 186 14
188 366 270 909 211 2853 735 2950 794 17 11 41 37 53 58 l22 40 0 659 0 660
-22 33 c-36 52 -71 73 -130 77 -45 2 -77 -6 -213 -58z"/>
<path d="M6260 28013 c-74 -38 -69 29 -80 -1024 -5 -519 -12 -1493 -16 -2164
l-6 -1220 24 -35 c13 -19 35 -40 48 -47 37 -19 4593 -19 4630 0 13 7 35 28 47
46 23 34 23 36 23 396 0 361 0 362 -23 396 -12 19 -34 39 -47 46 -18 8 -237
15 -750 23 -399 6 -912 15 -1140 20 -228 5 -541 12 -695 15 -371 8 -381 9
-422 50 l-33 33 0 271 c0 303 3 321 65 347 29 12 97 10 522 -11 1202 -60 1826
-85 2184 -86 276 -1 293 2 323 66 15 31 17 76 14 417 -3 374 -3 384 -25 418
-12 19 -32 41 -44 48 -16 10 -151 19 -533 33 -1262 47 -2079 82 -2325 98 -120
8 -124 10 -155 40 l-31 31 -3 270 c-4 387 -19 371 320 340 786 -70 1713 -131
2548 -166 152 -6 156 -6 190 18 20 14 40 38 47 58 13 38 19 680 7 739 -9 44
-56 88 -101 95 -21 3 -164 15 -318 26 -888 64 -1727 140 -2495 226 -438 48
-1566 182 -1680 199 -23 4 -47 -1 -70 -12z"/>
<path d="M16595 27869 c-253 -38 -620 -84 -947 -119 -147 -16 -277 -34 -288
-40 -49 -26 -50 -39 -50 -653 0 -316 -3 -758 -7 -983 l-6 -409 -28 -27 c-20
-20 -38 -28 -63 -28 -39 0 -29 -7 -471 345 -275 219 -1928 1524 -1987 1569
l-37 28 -441 -1 c-243 -1 -452 -6 -464 -11 -13 -5 -34 -19 -45 -31 l-21 -23 0
-1959 0 -1959 29 -29 29 -29 752 0 c800 0 793 0 816 47 5 10 11 446 14 968 5
1026 3 979 57 1004 61 28 62 27 485 -317 741 -603 1298 -1065 1768 -1467 129
-110 246 -208 260 -218 22 -15 64 -17 451 -17 l427 0 31 25 c22 19 31 37 35
68 8 65 30 4201 22 4231 -8 33 -60 66 -101 65 -16 -1 -115 -14 -220 -30z"/>
<path d="M18130 24720 c-239 -26 -468 -51 -507 -55 -84 -8 -129 -32 -156 -85
-16 -32 -17 -72 -15 -502 3 -454 4 -467 24 -495 47 -64 34 -63 622 -63 587 0
579 -1 623 61 20 28 20 40 20 561 -1 496 -3 535 -19 557 -30 41 -68 63 -113
66 -24 2 -240 -18 -479 -45z"/>
<path d="M13926 21185 c-21 -7 -51 -26 -67 -41 -64 -61 -60 63 -57 -1841 l3
-1731 30 -43 c17 -23 48 -52 70 -63 l40 -21 3592 -5 3591 -5 39 -31 c21 -17
47 -46 58 -65 20 -34 20 -52 20 -2429 0 -2332 -1 -2396 -19 -2430 -28 -51
-3352 -3387 -3400 -3412 -82 -42 -181 -19 -240 55 l-31 39 -3 1636 c-2 1210 0
1647 9 1677 9 34 90 119 498 530 1490 1501 1517 1528 1536 1577 35 93 -3 197
-90 242 l-40 21 -2760 0 -2760 0 -40 -21 c-22 -11 -53 -40 -70 -63 l-30 -43
-3 -7260 c-2 -7091 -2 -7261 17 -7303 46 -103 175 -142 273 -82 42 26 10829
10758 10873 10818 l30 41 3 5057 2 5058 -23 44 c-13 24 -43 58 -66 74 l-43 30
-5451 2 c-4612 2 -5458 0 -5491 -12z"/>
</g>
</svg>
