<?xml version="1.0" standalone="no"?>
<!DOCTYPE svg PUBLIC "-//W3C//DTD SVG 20010904//EN"
 "http://www.w3.org/TR/2001/REC-SVG-20010904/DTD/svg10.dtd">
<svg version="1.0" xmlns="http://www.w3.org/2000/svg"
 width="211.000000pt" height="239.000000pt" viewBox="0 0 211.000000 239.000000"
 preserveAspectRatio="xMidYMid meet">

<g transform="translate(0.000000,239.000000) scale(0.100000,-0.100000)"
fill="#000000" stroke="none">
<path d="M0 1195 l0 -1195 1055 0 1055 0 0 1195 0 1195 -1055 0 -1055 0 0
-1195z m741 428 l126 -357 -81 -143 -80 -143 -27 44 c-86 138 -217 369 -238
421 -59 145 -28 348 70 460 30 34 84 75 100 75 3 0 61 -161 130 -357z m808
327 c108 -78 172 -272 141 -425 -6 -33 -29 -94 -49 -135 -30 -59 -224 -395
-236 -408 -1 -2 -39 62 -83 141 l-80 144 84 239 c46 131 102 292 125 357 23
64 45 117 49 117 4 0 26 -14 49 -30z m-423 -597 l62 -96 -56 -86 c-81 -126
-73 -123 -119 -55 -22 33 -52 78 -66 101 l-26 41 66 102 c36 55 68 98 72 95 3
-4 33 -50 67 -102z m-620 -193 c14 -37 33 -63 57 -80 31 -22 93 -107 85 -116
-2 -2 -43 20 -91 49 -94 56 -89 47 -101 160 -5 42 -3 48 11 45 10 -2 26 -26
39 -58z m1147 35 c-1 -11 -4 -45 -8 -76 l-6 -55 -87 -52 c-47 -28 -88 -49 -90
-47 -10 10 53 96 86 117 29 19 41 38 56 82 14 41 24 56 35 54 9 -2 15 -12 14
-23z m-600 -226 c4 -2 42 49 86 114 l78 118 76 -133 c69 -121 81 -136 131
-168 53 -33 56 -37 56 -76 0 -23 3 -75 6 -117 6 -67 5 -77 -9 -77 -17 0 -27
27 -48 137 -17 89 -28 92 -223 65 l-152 -20 -147 20 c-203 28 -210 25 -232
-82 -24 -117 -25 -120 -40 -120 -17 0 -19 28 -9 156 l7 80 53 35 c49 31 62 47
130 167 l76 134 77 -115 c42 -63 79 -116 84 -118z m-74 -200 c71 -10 103 -9
186 4 55 9 101 15 103 13 2 -3 -200 -358 -212 -373 -1 -2 -53 83 -114 188
-112 191 -112 192 -81 185 17 -3 70 -11 118 -17z"/>
</g>
</svg>
