<svg version="1.1" id="Layer_1" xmlns="http://www.w3.org/2000/svg" xmlns:xlink="http://www.w3.org/1999/xlink" x="0px" y="0px"
	 width="100%" viewBox="0 0 200 200" enable-background="new 0 0 200 200" xml:space="preserve">
<path fill="#15FF02" opacity="1.000000" stroke="none" 
	d="
M1.000000,28.000000 
	C1.000000,27.555664 1.000000,27.111328 1.408577,26.583351 
	C9.647017,26.506638 17.503313,26.120686 25.298351,26.645161 
	C31.501707,27.062544 37.895096,27.798229 43.750492,29.752073 
	C95.012047,46.857174 146.170013,64.272690 197.371765,81.557411 
	C198.502151,81.939011 199.787140,81.862701 201.000000,82.000000 
	C201.000000,82.444336 201.000000,82.888672 200.701614,83.960571 
	C200.299683,96.162415 200.183243,107.736618 200.131775,119.311127 
	C200.129272,119.872787 200.697525,120.436989 201.000000,121.000000 
	C201.000000,121.444336 201.000000,121.888672 200.657715,122.420441 
	C147.216019,139.538803 94.128510,156.607178 40.992538,173.523285 
	C37.115650,174.757523 32.904427,175.275284 28.819256,175.453857 
	C19.555914,175.858780 10.274228,175.844086 1.000000,176.000000 
	C1.000000,175.555664 1.000000,175.111328 1.264136,174.012527 
	C1.683562,172.049942 1.973924,170.741882 1.974598,169.433670 
	C1.998090,123.866486 2.004249,78.299278 1.952484,32.732136 
	C1.950692,31.154400 1.331452,29.577364 1.000000,28.000000 
M34.918507,115.499969 
	C34.918507,123.610466 34.918507,131.720963 34.918507,140.328598 
	C78.923203,127.961533 122.346443,115.757874 165.769684,103.554214 
	C165.788559,102.888351 165.807434,102.222496 165.826309,101.556633 
	C122.329826,88.334831 78.833351,75.113029 34.918507,61.764061 
	C34.918507,79.857071 34.918507,97.178520 34.918507,115.499969 
z"/>
<path fill="#FEFFFE" opacity="1.000000" stroke="none" 
	d="
M201.000000,81.531342 
	C199.787140,81.862701 198.502151,81.939011 197.371765,81.557411 
	C146.170013,64.272690 95.012047,46.857174 43.750492,29.752073 
	C37.895096,27.798229 31.501707,27.062544 25.298351,26.645161 
	C17.503313,26.120686 9.647017,26.506638 1.408577,26.249855 
	C1.000000,17.678596 1.000000,9.357191 1.000000,1.017893 
	C67.559303,1.017893 134.118607,1.017893 201.000000,1.017893 
	C201.000000,27.686697 201.000000,54.374691 201.000000,81.531342 
z"/>
<path fill="#FEFFFE" opacity="1.000000" stroke="none" 
	d="
M1.000000,176.468689 
	C10.274228,175.844086 19.555914,175.858780 28.819256,175.453857 
	C32.904427,175.275284 37.115650,174.757523 40.992538,173.523285 
	C94.128510,156.607178 147.216019,139.538803 200.657715,122.753937 
	C201.000000,148.962418 201.000000,174.924820 201.000000,200.943619 
	C134.333344,200.943619 67.666672,200.943619 1.000000,200.943619 
	C1.000000,192.914185 1.000000,184.925766 1.000000,176.468689 
z"/>
<path fill="#3CFF2C" opacity="1.000000" stroke="none" 
	d="
M1.000000,28.468658 
	C1.331452,29.577364 1.950692,31.154400 1.952484,32.732136 
	C2.004249,78.299278 1.998090,123.866486 1.974598,169.433670 
	C1.973924,170.741882 1.683562,172.049942 1.264136,173.679031 
	C1.000000,125.645775 1.000000,77.291542 1.000000,28.468658 
z"/>
<path fill="#58FF4B" opacity="1.000000" stroke="none" 
	d="
M201.000000,120.531342 
	C200.697525,120.436989 200.129272,119.872787 200.131775,119.311127 
	C200.183243,107.736618 200.299683,96.162415 200.701614,84.294067 
	C201.000000,96.020897 201.000000,108.041786 201.000000,120.531342 
z"/>
<path fill="#FDFFFD" opacity="1.000000" stroke="none" 
	d="
M34.918507,114.999969 
	C34.918507,97.178520 34.918507,79.857071 34.918507,61.764061 
	C78.833351,75.113029 122.329826,88.334831 165.826309,101.556633 
	C165.807434,102.222496 165.788559,102.888351 165.769684,103.554214 
	C122.346443,115.757874 78.923203,127.961533 34.918507,140.328598 
	C34.918507,131.720963 34.918507,123.610466 34.918507,114.999969 
z"/>
</svg>