<svg version="1.1" id="Layer_1" xmlns="http://www.w3.org/2000/svg" xmlns:xlink="http://www.w3.org/1999/xlink" x="0px" y="0px"
	 width="100%" viewBox="0 0 300 300" enable-background="new 0 0 300 300" xml:space="preserve">
<path fill="#FE4655" opacity="1.000000" stroke="none" 
	d="
M139.000000,301.000000 
	C92.666664,301.000000 46.833332,301.000000 1.000000,301.000000 
	C1.000000,201.000000 1.000000,101.000000 1.000000,1.000000 
	C101.000000,1.000000 201.000000,1.000000 301.000000,1.000000 
	C301.000000,101.000000 301.000000,201.000000 301.000000,301.000000 
	C247.166672,301.000000 193.333328,301.000000 139.000000,301.000000 
M154.833344,200.740997 
	C158.695892,201.159332 162.558456,201.577682 165.882507,202.442505 
	C157.374786,212.799652 157.374878,212.799576 165.643921,223.114731 
	C166.060410,223.634232 166.510971,224.131226 166.881943,224.681656 
	C169.391098,228.404709 172.680878,227.991562 176.677811,226.759750 
	C172.897583,221.903580 169.440460,217.462479 165.890762,212.902466 
	C168.061935,209.934021 170.100494,207.146896 172.772568,203.897614 
	C173.248276,201.010529 173.723984,198.123444 174.292572,194.672653 
	C171.807480,194.786697 170.386490,194.851929 168.048492,194.743835 
	C162.708878,194.801620 157.369247,194.859421 151.361298,194.724747 
	C149.972107,195.401550 147.391708,196.047241 147.373093,196.759827 
	C147.109604,206.847961 147.193741,216.945190 147.193741,227.161896 
	C149.590042,227.161896 151.303452,227.161896 153.516418,227.161896 
	C153.516418,218.140305 153.516418,209.503464 153.770264,200.902328 
	C153.770264,200.902328 153.899002,200.680649 154.833344,200.740997 
M130.307755,171.727814 
	C134.222519,172.083710 138.133286,172.682632 142.052826,172.746902 
	C151.298706,172.898560 160.548752,172.795532 171.083710,172.795532 
	C169.525040,170.797623 168.790421,169.856003 167.778534,168.306046 
	C142.579849,136.821320 117.381149,105.336601 91.939636,73.548477 
	C91.268738,74.708794 90.984749,74.971024 90.983940,75.234123 
	C90.937836,90.228912 90.877708,105.223976 90.953163,120.218330 
	C90.960083,121.595871 91.518837,123.231171 92.375374,124.304749 
	C104.838364,139.925659 117.395889,155.471115 130.307755,171.727814 
M203.431015,131.962540 
	C208.795181,126.587425 211.943848,120.675888 211.183197,112.502068 
	C210.368454,103.747330 210.999435,94.858055 210.999435,86.027496 
	C210.999435,82.119766 210.999420,78.212029 210.999420,74.304298 
	C210.575806,74.149910 210.152176,73.995522 209.728561,73.841133 
	C192.612625,95.227081 175.496689,116.613022 157.492310,139.109070 
	C169.191940,139.109070 179.313400,138.735916 189.389923,139.247574 
	C195.535110,139.559647 200.051895,138.016388 203.431015,131.962540 
M113.292297,224.247528 
	C121.285477,229.764587 129.821457,229.652725 136.137253,223.948135 
	C142.159973,218.508255 143.693451,209.543243 139.615250,202.557327 
	C136.026642,196.410095 130.535187,193.402435 123.424866,193.841431 
	C116.521194,194.267639 111.461372,197.776947 108.723503,204.120270 
	C105.538742,211.499039 107.239563,218.074417 113.292297,224.247528 
M62.522202,217.918137 
	C63.432514,217.916580 64.748978,217.527100 65.182480,217.980957 
	C67.010208,219.894501 68.726891,221.957626 70.199394,224.156708 
	C72.370087,227.398483 75.148933,228.293182 78.897430,227.015640 
	C78.897430,216.344803 78.897430,205.676331 78.897430,195.169800 
	C74.576416,193.749268 71.860367,195.298065 69.696640,198.604858 
	C68.339066,200.679642 66.631874,202.525879 65.078941,204.472595 
	C59.224796,211.811081 53.369583,219.148727 47.078518,227.033478 
	C51.826160,227.921066 55.307755,228.024246 57.754433,223.951736 
	C58.940826,221.976959 60.608894,220.291550 62.522202,217.918137 
M209.116287,198.916183 
	C209.116287,201.412369 209.346573,203.934540 209.068207,206.399292 
	C208.493820,211.484970 211.433945,214.428543 215.702057,218.400787 
	C215.702057,213.582993 215.702057,210.077011 215.702057,205.105896 
	C221.530121,212.392181 226.468231,218.377884 231.181152,224.535919 
	C233.597641,227.693344 236.301224,228.351013 239.765259,226.776733 
	C239.765259,216.158478 239.765259,205.718582 239.765259,194.986023 
	C237.805573,194.986023 236.059265,194.986023 233.728989,194.986023 
	C233.728989,202.050415 233.728989,208.898682 233.728989,216.997742 
	C231.814148,214.775925 230.737534,213.598679 229.740585,212.357468 
	C225.572922,207.168518 221.622513,201.784546 217.154297,196.870499 
	C215.878189,195.467072 213.155518,195.175430 211.028214,194.901367 
	C210.533905,194.837677 209.761765,196.930573 209.116287,198.916183 
M181.909973,197.101242 
	C181.909973,207.050079 181.909973,216.998932 181.909973,226.976730 
	C191.463913,229.646622 192.022079,219.490860 197.539993,216.927368 
	C208.404297,228.490219 208.404297,228.490219 213.619110,226.409180 
	C205.686798,216.459915 197.868591,206.510254 189.867081,196.710281 
	C187.635513,193.977142 184.768677,193.416824 181.909973,197.101242 
M42.273098,210.772247 
	C40.803795,212.542023 39.334496,214.311798 37.865192,216.081589 
	C37.523331,215.872147 37.181473,215.662704 36.839611,215.453262 
	C36.839611,208.697784 36.839611,201.942322 36.839611,194.963501 
	C34.735210,194.963501 32.987938,194.963501 30.994339,194.963501 
	C30.994339,205.794479 30.994339,216.363342 30.994339,226.996796 
	C34.787392,228.154694 37.411381,227.389618 39.808960,224.205688 
	C45.509750,216.635223 51.570724,209.336227 57.474743,201.918442 
	C59.153038,199.809845 60.792099,197.670013 62.616608,195.329712 
	C57.496033,193.771332 54.306343,195.012787 51.686157,198.859940 
	C48.978596,202.835373 45.740471,206.449463 42.273098,210.772247 
M253.009872,201.722000 
	C253.009872,210.126907 253.009872,218.531799 253.009872,226.798965 
	C257.841614,228.369629 260.014862,227.716766 259.806152,222.699036 
	C259.505219,215.464462 259.729218,208.208038 259.729218,200.843399 
	C263.704926,200.645752 266.927521,200.485550 270.150116,200.325333 
	C268.863068,197.710159 267.162079,195.047058 265.269165,194.902817 
	C258.381226,194.377960 251.429108,194.695602 244.352081,194.695602 
	C244.352081,196.851868 244.352081,198.431839 244.352081,200.211700 
	C247.228668,200.471848 249.842773,200.708252 253.009872,201.722000 
M103.608765,221.441360 
	C100.180000,221.441360 96.751228,221.441360 92.775421,221.441360 
	C92.775421,212.177246 92.775421,203.626022 92.775421,195.030746 
	C90.464134,195.030746 88.740242,195.030746 86.994232,195.030746 
	C86.994232,205.960800 86.994232,216.530472 86.994232,227.545776 
	C91.602997,227.545776 95.964859,227.980774 100.171303,227.360947 
	C102.251968,227.054382 104.046234,224.804108 105.970093,223.433273 
	C105.443878,222.772217 104.917664,222.111160 103.608765,221.441360 
z"/>
<path fill="#131112" opacity="1.000000" stroke="none" 
	d="
M129.930847,171.034592 
	C117.395889,155.471115 104.838364,139.925659 92.375374,124.304749 
	C91.518837,123.231171 90.960083,121.595871 90.953163,120.218330 
	C90.877708,105.223976 90.937836,90.228912 90.983940,75.234123 
	C90.984749,74.971024 91.268738,74.708794 91.939636,73.548477 
	C117.381149,105.336601 142.579849,136.821320 167.689087,168.938385 
	C165.933640,170.097473 164.271698,171.064270 162.601013,171.079620 
	C151.712021,171.179703 140.821121,171.073395 129.930847,171.034592 
z"/>
<path fill="#131111" opacity="1.000000" stroke="none" 
	d="
M203.207062,132.243896 
	C200.051895,138.016388 195.535110,139.559647 189.389923,139.247574 
	C179.313400,138.735916 169.191940,139.109070 157.492310,139.109070 
	C175.496689,116.613022 192.612625,95.227081 209.728561,73.841133 
	C210.152176,73.995522 210.575806,74.149910 210.999420,74.304298 
	C210.999420,78.212029 210.999435,82.119766 210.999435,86.027496 
	C210.999435,94.858055 210.368454,103.747330 211.183197,112.502068 
	C211.943848,120.675888 208.795181,126.587425 203.207062,132.243896 
z"/>
<path fill="#191313" opacity="1.000000" stroke="none" 
	d="
M113.016235,224.012329 
	C107.239563,218.074417 105.538742,211.499039 108.723503,204.120270 
	C111.461372,197.776947 116.521194,194.267639 123.424866,193.841431 
	C130.535187,193.402435 136.026642,196.410095 139.615250,202.557327 
	C143.693451,209.543243 142.159973,218.508255 136.137253,223.948135 
	C129.821457,229.652725 121.285477,229.764587 113.016235,224.012329 
M123.692474,222.181946 
	C129.196121,222.406677 132.899994,219.772018 134.811920,214.768585 
	C136.512924,210.317123 134.931427,205.083069 131.202515,202.236481 
	C127.591858,199.480148 123.628174,198.950516 119.564667,201.143570 
	C115.153229,203.524414 113.259613,207.402817 113.806770,212.315994 
	C114.408958,217.723328 117.564644,220.962173 123.692474,222.181946 
z"/>
<path fill="#171213" opacity="1.000000" stroke="none" 
	d="
M62.290550,218.196640 
	C60.608894,220.291550 58.940826,221.976959 57.754433,223.951736 
	C55.307755,228.024246 51.826160,227.921066 47.078518,227.033478 
	C53.369583,219.148727 59.224796,211.811081 65.078941,204.472595 
	C66.631874,202.525879 68.339066,200.679642 69.696640,198.604858 
	C71.860367,195.298065 74.576416,193.749268 78.897430,195.169800 
	C78.897430,205.676331 78.897430,216.344803 78.897430,227.015640 
	C75.148933,228.293182 72.370087,227.398483 70.199394,224.156708 
	C68.726891,221.957626 67.010208,219.894501 65.182480,217.980957 
	C64.748978,217.527100 63.432514,217.916580 62.290550,218.196640 
M73.008934,206.610458 
	C72.589508,206.351166 71.930977,205.770630 71.785263,205.879089 
	C66.715515,209.652405 67.048286,212.861771 73.023438,216.369705 
	C73.023438,213.293839 73.023438,210.341278 73.008934,206.610458 
z"/>
<path fill="#191313" opacity="1.000000" stroke="none" 
	d="
M209.116882,198.473663 
	C209.761765,196.930573 210.533905,194.837677 211.028214,194.901367 
	C213.155518,195.175430 215.878189,195.467072 217.154297,196.870499 
	C221.622513,201.784546 225.572922,207.168518 229.740585,212.357468 
	C230.737534,213.598679 231.814148,214.775925 233.728989,216.997742 
	C233.728989,208.898682 233.728989,202.050415 233.728989,194.986023 
	C236.059265,194.986023 237.805573,194.986023 239.765259,194.986023 
	C239.765259,205.718582 239.765259,216.158478 239.765259,226.776733 
	C236.301224,228.351013 233.597641,227.693344 231.181152,224.535919 
	C226.468231,218.377884 221.530121,212.392181 215.702057,205.105896 
	C215.702057,210.077011 215.702057,213.582993 215.702057,218.400787 
	C211.433945,214.428543 208.493820,211.484970 209.068207,206.399292 
	C209.346573,203.934540 209.116287,201.412369 209.116882,198.473663 
z"/>
<path fill="#181313" opacity="1.000000" stroke="none" 
	d="
M181.933136,196.672485 
	C184.768677,193.416824 187.635513,193.977142 189.867081,196.710281 
	C197.868591,206.510254 205.686798,216.459915 213.619110,226.409180 
	C208.404297,228.490219 208.404297,228.490219 197.539993,216.927368 
	C192.022079,219.490860 191.463913,229.646622 181.909973,226.976730 
	C181.909973,216.998932 181.909973,207.050079 181.933136,196.672485 
M193.256561,211.391296 
	C191.927948,209.330841 190.599335,207.270386 189.270721,205.209930 
	C188.973587,205.362930 188.676437,205.515945 188.379303,205.668961 
	C188.379303,209.250000 188.379303,212.831039 188.379303,217.727814 
	C190.394257,215.235931 191.670731,213.657333 193.256561,211.391296 
z"/>
<path fill="#151212" opacity="1.000000" stroke="none" 
	d="
M42.503769,210.496933 
	C45.740471,206.449463 48.978596,202.835373 51.686157,198.859940 
	C54.306343,195.012787 57.496033,193.771332 62.616608,195.329712 
	C60.792099,197.670013 59.153038,199.809845 57.474743,201.918442 
	C51.570724,209.336227 45.509750,216.635223 39.808960,224.205688 
	C37.411381,227.389618 34.787392,228.154694 30.994339,226.996796 
	C30.994339,216.363342 30.994339,205.794479 30.994339,194.963501 
	C32.987938,194.963501 34.735210,194.963501 36.839611,194.963501 
	C36.839611,201.942322 36.839611,208.697784 36.839611,215.453262 
	C37.181473,215.662704 37.523331,215.872147 37.865192,216.081589 
	C39.334496,214.311798 40.803795,212.542023 42.503769,210.496933 
z"/>
<path fill="#181313" opacity="1.000000" stroke="none" 
	d="
M152.029633,194.917206 
	C157.369247,194.859421 162.708878,194.801620 168.794159,195.066925 
	C170.406235,198.379944 171.272644,201.369858 172.139053,204.359772 
	C170.100494,207.146896 168.061935,209.934021 165.890762,212.902466 
	C169.440460,217.462479 172.897583,221.903580 176.677811,226.759750 
	C172.680878,227.991562 169.391098,228.404709 166.881943,224.681656 
	C166.510971,224.131226 166.060410,223.634232 165.643921,223.114731 
	C157.374878,212.799576 157.374786,212.799652 166.244904,201.904404 
	C164.355515,198.285965 158.285400,197.958450 153.899002,200.680649 
	C153.899002,200.680649 153.770264,200.902328 153.373459,201.141571 
	C152.656616,207.629181 152.379990,213.880264 151.988556,220.124176 
	C151.879333,221.866455 151.431000,223.587494 151.138229,225.318268 
	C149.733826,224.711807 149.185623,224.173187 149.179550,223.628525 
	C149.088837,215.484116 148.923325,207.334488 149.169403,199.197998 
	C149.213409,197.743561 151.030975,196.342758 152.029633,194.917206 
z"/>
<path fill="#241516" opacity="1.000000" stroke="none" 
	d="
M252.733368,201.333328 
	C249.842773,200.708252 247.228668,200.471848 244.352081,200.211700 
	C244.352081,198.431839 244.352081,196.851868 244.352081,194.695602 
	C251.429108,194.695602 258.381226,194.377960 265.269165,194.902817 
	C267.162079,195.047058 268.863068,197.710159 270.150116,200.325333 
	C266.927521,200.485550 263.704926,200.645752 259.729218,200.843399 
	C259.729218,208.208038 259.505219,215.464462 259.806152,222.699036 
	C260.014862,227.716766 257.841614,228.369629 253.009872,226.798965 
	C253.009872,218.531799 253.009872,210.126907 252.733368,201.333328 
z"/>
<path fill="#1E1415" opacity="1.000000" stroke="none" 
	d="
M104.000107,221.445740 
	C104.917664,222.111160 105.443878,222.772217 105.970093,223.433273 
	C104.046234,224.804108 102.251968,227.054382 100.171303,227.360947 
	C95.964859,227.980774 91.602997,227.545776 86.994232,227.545776 
	C86.994232,216.530472 86.994232,205.960800 86.994232,195.030746 
	C88.740242,195.030746 90.464134,195.030746 92.775421,195.030746 
	C92.775421,203.626022 92.775421,212.177246 92.775421,221.441360 
	C96.751228,221.441360 100.180000,221.441360 104.000107,221.445740 
z"/>
<path fill="#1F1415" opacity="1.000000" stroke="none" 
	d="
M151.695465,194.820969 
	C151.030975,196.342758 149.213409,197.743561 149.169403,199.197998 
	C148.923325,207.334488 149.088837,215.484116 149.179550,223.628525 
	C149.185623,224.173187 149.733826,224.711807 151.138229,225.318268 
	C151.431000,223.587494 151.879333,221.866455 151.988556,220.124176 
	C152.379990,213.880264 152.656616,207.629181 153.246536,201.123703 
	C153.516418,209.503464 153.516418,218.140305 153.516418,227.161896 
	C151.303452,227.161896 149.590042,227.161896 147.193741,227.161896 
	C147.193741,216.945190 147.109604,206.847961 147.373093,196.759827 
	C147.391708,196.047241 149.972107,195.401550 151.695465,194.820969 
z"/>
<path fill="#37191C" opacity="1.000000" stroke="none" 
	d="
M130.119293,171.381195 
	C140.821121,171.073395 151.712021,171.179703 162.601013,171.079620 
	C164.271698,171.064270 165.933640,170.097473 167.827728,169.242554 
	C168.790421,169.856003 169.525040,170.797623 171.083710,172.795532 
	C160.548752,172.795532 151.298706,172.898560 142.052826,172.746902 
	C138.133286,172.682632 134.222519,172.083710 130.119293,171.381195 
z"/>
<path fill="#1F1415" opacity="1.000000" stroke="none" 
	d="
M154.366180,200.710815 
	C158.285400,197.958450 164.355515,198.285965 166.514145,201.681152 
	C162.558456,201.577682 158.695892,201.159332 154.366180,200.710815 
z"/>
<path fill="#1F1415" opacity="1.000000" stroke="none" 
	d="
M172.455811,204.128693 
	C171.272644,201.369858 170.406235,198.379944 169.252655,195.153595 
	C170.386490,194.851929 171.807480,194.786697 174.292572,194.672653 
	C173.723984,198.123444 173.248276,201.010529 172.455811,204.128693 
z"/>
<path fill="#F94554" opacity="1.000000" stroke="none" 
	d="
M123.283569,222.145447 
	C117.564644,220.962173 114.408958,217.723328 113.806770,212.315994 
	C113.259613,207.402817 115.153229,203.524414 119.564667,201.143570 
	C123.628174,198.950516 127.591858,199.480148 131.202515,202.236481 
	C134.931427,205.083069 136.512924,210.317123 134.811920,214.768585 
	C132.899994,219.772018 129.196121,222.406677 123.283569,222.145447 
z"/>
<path fill="#EF4352" opacity="1.000000" stroke="none" 
	d="
M73.016190,206.999573 
	C73.023438,210.341278 73.023438,213.293839 73.023438,216.369705 
	C67.048286,212.861771 66.715515,209.652405 71.785263,205.879089 
	C71.930977,205.770630 72.589508,206.351166 73.016190,206.999573 
z"/>
<path fill="#E3414F" opacity="1.000000" stroke="none" 
	d="
M193.101883,211.735016 
	C191.670731,213.657333 190.394257,215.235931 188.379303,217.727814 
	C188.379303,212.831039 188.379303,209.250000 188.379303,205.668961 
	C188.676437,205.515945 188.973587,205.362930 189.270721,205.209930 
	C190.599335,207.270386 191.927948,209.330841 193.101883,211.735016 
z"/>
</svg>